<svg xmlns="http://www.w3.org/2000/svg" xmlns:xlink="http://www.w3.org/1999/xlink" width="500" zoomAndPan="magnify" viewBox="0 0 375 149.999998" height="200" preserveAspectRatio="xMidYMid meet" version="1.0"><defs><filter x="0%" y="0%" width="100%" height="100%" id="id1"><feColorMatrix values="0 0 0 0 1 0 0 0 0 1 0 0 0 0 1 0 0 0 1 0" color-interpolation-filters="sRGB"/></filter><g/><clipPath id="id2"><path d="M 0 65.375 L 375 65.375 L 375 150 L 0 150 Z M 0 65.375 " clip-rule="nonzero"/></clipPath><clipPath id="id3"><path d="M 5.375 77.652344 L 65.375 77.652344 L 65.375 137.652344 L 5.375 137.652344 Z M 5.375 77.652344 " clip-rule="nonzero"/></clipPath><mask id="id4"><g filter="url(#id1)"><rect x="-37.5" width="450" fill="#000000" y="-15" height="179.999997" fill-opacity="0.8784"/></g></mask><clipPath id="id5"><path d="M 0.609375 0.882812 L 58.359375 0.882812 L 58.359375 58.632812 L 0.609375 58.632812 Z M 0.609375 0.882812 " clip-rule="nonzero"/></clipPath><clipPath id="id6"><rect x="0" width="59" y="0" height="59"/></clipPath><clipPath id="id7"><path d="M 8.144531 92 L 62.144531 92 L 62.144531 135.507812 L 8.144531 135.507812 Z M 8.144531 92 " clip-rule="nonzero"/></clipPath><clipPath id="id8"><path d="M 0 0 L 374.640625 0 L 374.640625 65.25 L 0 65.25 Z M 0 0 " clip-rule="nonzero"/></clipPath></defs><rect x="-37.5" width="450" fill="#ffffff" y="-15" height="179.999997" fill-opacity="1"/><rect x="-37.5" width="450" fill="#ffffff" y="-15" height="179.999997" fill-opacity="1"/><rect x="-37.5" width="450" fill="#ffffff" y="-15" height="179.999997" fill-opacity="1"/><rect x="-37.5" width="450" fill="#ffffff" y="-15" height="179.999997" fill-opacity="1"/><g clip-path="url(#id2)"><path fill="#15a446" d="M 0.0117188 65.375 L 374.988281 65.375 L 374.988281 150.125 L 0.0117188 150.125 L 0.0117188 65.375 " fill-opacity="1" fill-rule="nonzero"/></g><g clip-path="url(#id3)"><path fill="#ffffff" d="M 35.375 77.652344 C 18.808594 77.652344 5.375 91.082031 5.375 107.652344 C 5.375 124.21875 18.808594 137.652344 35.375 137.652344 C 51.945312 137.652344 65.375 124.21875 65.375 107.652344 C 65.375 91.082031 51.945312 77.652344 35.375 77.652344 " fill-opacity="1" fill-rule="nonzero"/></g><g mask="url(#id4)"><g transform="matrix(1, 0, 0, 1, 6, 78)"><g clip-path="url(#id6)"><g clip-path="url(#id5)"><path fill="#15a446" d="M 29.484375 0.882812 C 13.539062 0.882812 0.609375 13.8125 0.609375 29.757812 C 0.609375 45.707031 13.539062 58.632812 29.484375 58.632812 C 45.433594 58.632812 58.359375 45.707031 58.359375 29.757812 C 58.359375 13.8125 45.433594 0.882812 29.484375 0.882812 " fill-opacity="1" fill-rule="nonzero"/></g></g></g></g><g clip-path="url(#id7)"><path fill="#ffffff" d="M 57.761719 102.816406 C 51.589844 100.996094 45.171875 94.808594 43.613281 96.273438 C 41.53125 98.046875 38.902344 99.046875 36.246094 99.574219 C 36.234375 96.546875 36.179688 97.503906 36.890625 96.671875 C 37.925781 95.796875 37.902344 94.050781 36.953125 93.117188 C 35.1875 91.261719 32.199219 93.015625 32.648438 95.304688 C 32.734375 96.136719 33.398438 96.691406 33.972656 97.21875 C 34.105469 97.996094 34.027344 98.789062 34.050781 99.574219 C 31.785156 99.136719 29.566406 98.320312 27.644531 97.027344 C 27.039062 96.644531 26.519531 95.835938 25.699219 96.085938 C 22.8125 96.769531 18.183594 100.992188 12.871094 102.714844 C 11.347656 103.25 9.695312 103.136719 8.140625 103.566406 L 8.140625 103.75 C 9.855469 104.359375 11.757812 104.320312 13.527344 103.984375 C 14.078125 104.457031 13.574219 105.121094 17.425781 103.882812 C 18.191406 104.652344 19.261719 104.128906 20.144531 103.902344 C 20.617188 103.726562 21.09375 103.972656 21.5625 104.042969 C 22.203125 104.222656 22.84375 103.945312 23.480469 103.890625 C 24.054688 103.921875 24.617188 104.085938 25.191406 104.027344 C 25.800781 103.980469 26.355469 103.699219 26.9375 103.546875 C 27.488281 103.605469 28.039062 103.824219 28.601562 103.714844 C 29.1875 103.621094 29.6875 103.292969 30.230469 103.074219 C 31.390625 103.015625 31.210938 103.832031 34.082031 101.925781 C 34.144531 106.699219 34.246094 111.472656 34.277344 116.25 C 30.066406 114.542969 24.558594 114.089844 23.746094 112.410156 C 23.421875 111.160156 24.515625 110.027344 25.628906 109.671875 C 26.875 109.414062 28.167969 109.609375 29.421875 109.382812 C 30.746094 109.144531 31.289062 108.710938 32.5 107.664062 C 32.597656 107.582031 32.582031 107.421875 32.464844 107.363281 C 30.703125 106.441406 30.882812 107.339844 28 106.066406 C 27.402344 105.800781 26.722656 106.664062 25.707031 107.125 C 24.34375 107.761719 22.980469 108.574219 22.148438 109.875 C 21.261719 111.230469 21.46875 113.132812 22.472656 114.371094 C 24.3125 116.636719 28.445312 117.09375 32.355469 118.140625 C 31.765625 118.636719 31.167969 119.128906 30.683594 119.730469 C 29.402344 121.292969 28.808594 123.425781 29.160156 125.421875 C 29.585938 127.34375 31.355469 128.484375 32.941406 129.40625 C 31.769531 130.203125 30.597656 131.117188 29.953125 132.417969 C 28.101562 136.3125 31.007812 137.898438 34.25 140.277344 C 33.191406 141.613281 31.675781 143.867188 32.542969 145.347656 C 32.945312 143.878906 32.585938 143.328125 34.628906 141.382812 C 34.6875 142.921875 34.675781 144.460938 34.695312 146 C 34.992188 146 35.292969 146 35.589844 146 C 35.601562 144.460938 35.613281 142.917969 35.644531 141.375 C 37.78125 143.441406 37.292969 143.835938 37.75 145.335938 C 37.910156 144.949219 38.082031 144.539062 37.980469 144.109375 C 37.8125 142.636719 36.9375 141.386719 36.011719 140.277344 C 39.023438 138.144531 41.640625 136.628906 40.683594 133.34375 C 40.230469 131.59375 38.785156 130.375 37.355469 129.398438 C 40.601562 127.554688 41.9375 125.816406 40.898438 122.140625 C 40.429688 120.492188 39.246094 119.179688 37.9375 118.132812 C 40.78125 117.359375 43.808594 117.011719 46.417969 115.558594 C 48.71875 114.316406 50.800781 110.078125 44.726562 107.199219 C 44.03125 106.902344 43.4375 106.210938 42.6875 106.0625 C 42.03125 105.933594 41.554688 106.589844 40.492188 106.722656 C 39.09375 106.894531 37.109375 107.082031 37.863281 107.738281 C 38.503906 108.300781 39.289062 109.003906 40.128906 109.230469 C 41.503906 109.601562 42.9375 109.453125 44.332031 109.601562 C 45.550781 109.8125 46.75 110.910156 46.578125 112.230469 C 46.136719 114.023438 40.542969 114.453125 36.011719 116.238281 C 36.03125 111.464844 36.15625 106.691406 36.191406 101.914062 C 38.964844 103.753906 38.785156 103.070312 40.046875 103.0625 C 40.589844 103.289062 41.089844 103.636719 41.6875 103.714844 C 42.25 103.808594 42.800781 103.609375 43.359375 103.554688 C 43.933594 103.703125 44.484375 103.972656 45.082031 104.027344 C 45.667969 104.097656 46.242188 103.917969 46.820312 103.886719 C 47.453125 103.957031 48.085938 104.21875 48.722656 104.042969 C 49.1875 103.96875 49.664062 103.730469 50.136719 103.898438 C 51.015625 104.117188 52.085938 104.660156 52.84375 103.878906 C 56.394531 105.109375 56.296875 104.476562 56.753906 103.988281 C 58.53125 104.355469 60.394531 104.285156 62.144531 103.8125 L 62.144531 103.605469 C 60.726562 103.109375 59.1875 103.273438 57.761719 102.816406 Z M 28.246094 107.347656 C 28.246094 108.109375 27.09375 108.113281 27.09375 107.347656 C 27.09375 106.582031 28.246094 106.582031 28.246094 107.347656 Z M 31.429688 125.128906 C 30.902344 122.851562 32.316406 120.515625 34.335938 119.507812 C 34.371094 122.265625 34.433594 125.027344 34.460938 127.789062 C 33.304688 127.121094 31.945312 126.449219 31.429688 125.128906 Z M 31.507812 135.867188 C 30.9375 135.199219 31.121094 134.226562 31.476562 133.503906 C 32.101562 132.285156 33.332031 131.585938 34.449219 130.890625 C 34.597656 133.539062 34.53125 136.195312 34.613281 138.84375 C 33.507812 137.933594 32.421875 136.976562 31.507812 135.867188 Z M 42.246094 107.925781 C 41.484375 107.925781 41.484375 106.769531 42.246094 106.769531 C 43.007812 106.769531 43.007812 107.925781 42.246094 107.925781 Z M 38.949219 133.804688 C 39.558594 135.558594 38.839844 136.039062 35.671875 138.867188 C 35.726562 136.207031 35.730469 133.546875 35.804688 130.886719 C 37.027344 131.628906 38.382812 132.414062 38.949219 133.808594 Z M 38.898438 124.972656 C 38.476562 126.402344 37.003906 127.089844 35.820312 127.796875 C 35.871094 125.027344 35.894531 122.261719 35.953125 119.492188 C 37.910156 120.507812 39.3125 122.726562 38.898438 124.972656 Z M 38.898438 124.972656 " fill-opacity="1" fill-rule="nonzero"/></g><g clip-path="url(#id8)"><path fill="#004aad" d="M -33.339844 0 L 374.625 0 L 374.625 65.25 L -33.339844 65.25 L -33.339844 0 " fill-opacity="1" fill-rule="nonzero"/></g><g fill="#ffde59" fill-opacity="1"><g transform="translate(24.894652, 47.312112)"><g><path d="M 1.332031 -31.230469 C 1.5625 -31.09375 1.886719 -30.910156 2.253906 -30.726562 C 2.988281 -30.3125 3.496094 -29.53125 3.496094 -28.703125 L 3.496094 -4.324219 C 3.402344 -3.585938 2.945312 -2.851562 2.253906 -2.53125 C 1.933594 -2.347656 1.5625 -2.160156 1.332031 -1.976562 C 0.550781 -1.425781 0.964844 0 1.933594 0 L 16.144531 0 C 17.109375 0 17.523438 -1.425781 16.742188 -1.976562 C 16.46875 -2.160156 16.238281 -2.347656 15.960938 -2.484375 C 15.226562 -2.945312 14.765625 -3.726562 14.765625 -4.507812 L 14.765625 -13.660156 L 15.730469 -13.660156 C 18.03125 -13.617188 19.824219 -12.972656 21.988281 -8.09375 L 23.457031 -4.644531 L 23.414062 -4.644531 L 23.550781 -4.371094 C 23.871094 -3.585938 23.644531 -2.851562 22.859375 -2.484375 C 22.585938 -2.300781 22.261719 -2.160156 22.03125 -1.976562 C 21.25 -1.425781 21.664062 0 22.628906 0 L 38.40625 0 C 39.375 0 39.789062 -1.425781 39.007812 -1.976562 C 38.777344 -2.117188 38.59375 -2.207031 38.363281 -2.300781 C 37.578125 -2.574219 36.84375 -3.21875 36.476562 -4 L 33.855469 -9.519531 C 32.472656 -12.925781 30.542969 -14.628906 28.75 -14.949219 C 34.222656 -16.46875 37.394531 -19.226562 37.394531 -23.367188 C 37.394531 -29.992188 29.347656 -33.300781 16.652344 -33.257812 L 1.886719 -33.210938 C 0.964844 -33.210938 0.550781 -31.785156 1.332031 -31.230469 Z M 14.765625 -29.070312 C 14.765625 -29.898438 15.316406 -30.496094 16.144531 -30.496094 C 23.042969 -30.449219 26.125 -28.195312 26.125 -23.320312 C 26.125 -18.492188 22.953125 -16.421875 16.144531 -16.421875 C 15.316406 -16.421875 14.765625 -16.972656 14.765625 -17.800781 Z M 14.765625 -29.070312 "/></g></g></g><g fill="#ffde59" fill-opacity="1"><g transform="translate(65.923215, 47.312112)"><g><path d="M 1.886719 0 L 8.09375 0 C 9.0625 0 9.476562 -1.425781 8.695312 -1.976562 C 8.417969 -2.160156 8.140625 -2.347656 7.910156 -2.484375 C 7.175781 -2.945312 6.667969 -3.726562 6.714844 -4.507812 L 7.453125 -25.574219 L 16.652344 -1.289062 C 16.972656 -0.507812 17.710938 0 18.535156 0 L 20.699219 0 C 21.527344 0 22.214844 -0.507812 22.539062 -1.289062 L 31.140625 -25.4375 L 32.199219 -4.507812 C 32.152344 -3.679688 31.691406 -2.898438 30.910156 -2.53125 C 30.589844 -2.347656 30.265625 -2.160156 29.992188 -1.976562 C 29.253906 -1.425781 29.667969 0 30.589844 0 L 44.800781 0 C 45.765625 0 46.226562 -1.425781 45.445312 -1.976562 C 45.167969 -2.160156 44.894531 -2.347656 44.617188 -2.484375 C 43.925781 -2.945312 43.46875 -3.726562 43.46875 -4.507812 L 42.273438 -28.976562 C 42.316406 -29.714844 42.777344 -30.449219 43.421875 -30.863281 C 43.699219 -31.003906 43.972656 -31.1875 44.25 -31.371094 C 45.03125 -31.921875 44.570312 -33.347656 43.605469 -33.347656 L 32.472656 -33.347656 C 31.644531 -33.347656 30.910156 -32.84375 30.589844 -32.058594 L 23.964844 -14.074219 L 16.695312 -32.058594 C 16.375 -32.84375 15.640625 -33.347656 14.8125 -33.347656 L 2.804688 -33.347656 C 1.886719 -33.347656 1.472656 -31.921875 2.253906 -31.371094 C 2.484375 -31.1875 2.804688 -31.003906 3.171875 -30.816406 C 3.816406 -30.496094 4.277344 -29.898438 4.371094 -29.207031 L 3.496094 -4.507812 C 3.496094 -3.679688 2.988281 -2.898438 2.253906 -2.53125 C 1.886719 -2.347656 1.5625 -2.160156 1.332031 -1.976562 C 0.550781 -1.425781 0.964844 0 1.886719 0 Z M 1.886719 0 "/></g></g></g><g fill="#ffde59" fill-opacity="1"><g transform="translate(112.885276, 47.312112)"><g/></g></g><g fill="#ffde59" fill-opacity="1"><g transform="translate(129.213918, 47.312112)"><g><path d="M 2.160156 0 L 8.371094 0 C 9.292969 0 9.707031 -1.425781 8.921875 -1.976562 C 8.785156 -2.070312 8.648438 -2.160156 8.507812 -2.253906 C 7.867188 -2.714844 7.589844 -3.585938 7.910156 -4.414062 L 8.050781 -4.875 L 9.660156 -9.015625 L 23.457031 -9.015625 L 25.070312 -4.601562 C 25.296875 -3.863281 25.023438 -3.082031 24.378906 -2.53125 C 24.101562 -2.347656 23.871094 -2.117188 23.644531 -1.976562 C 22.859375 -1.425781 23.273438 0 24.195312 0 L 39.832031 0 C 40.800781 0 41.214844 -1.425781 40.433594 -1.976562 C 40.15625 -2.160156 39.832031 -2.347656 39.558594 -2.53125 C 38.820312 -2.945312 38.132812 -3.679688 37.808594 -4.414062 L 26.449219 -33.164062 C 26.171875 -33.945312 25.390625 -34.5 24.5625 -34.542969 L 15.085938 -35.097656 C 14.304688 -35.140625 13.9375 -34.683594 14.214844 -33.898438 L 15.269531 -31.046875 L 4.507812 -4.414062 C 4.230469 -3.726562 3.542969 -3.082031 2.714844 -2.667969 C 2.253906 -2.4375 1.933594 -2.207031 1.5625 -1.976562 C 0.78125 -1.425781 1.195312 0 2.160156 0 Z M 16.789062 -26.953125 L 22.445312 -11.730469 L 10.761719 -11.730469 Z M 16.789062 -26.953125 "/></g></g></g><g fill="#ffde59" fill-opacity="1"><g transform="translate(171.43838, 47.312112)"><g><path d="M 1.609375 -16.652344 C 1.609375 -9.246094 4.738281 -3.726562 10.71875 -1.105469 C 10.027344 -0.78125 9.476562 -0.367188 8.96875 0 C 8.324219 0.460938 8.234375 1.332031 8.695312 1.976562 C 8.96875 2.390625 9.382812 2.574219 9.796875 2.574219 C 10.074219 2.574219 10.347656 2.484375 10.671875 2.300781 C 11.363281 1.839844 12.234375 1.472656 13.292969 1.519531 C 19.089844 1.65625 20.789062 9.660156 28.703125 10.488281 C 32.886719 10.949219 35.878906 9.429688 37.71875 8.234375 C 38.40625 7.773438 38.636719 6.945312 38.316406 6.210938 L 36.523438 2.117188 C 36.292969 1.65625 36.015625 1.425781 35.554688 1.425781 C 35.324219 1.425781 35.097656 1.519531 34.820312 1.609375 C 33.300781 2.53125 30.3125 3.816406 26.125 3.402344 C 24.195312 3.265625 21.296875 1.839844 18.949219 0.597656 C 19.179688 0.597656 19.410156 0.597656 19.640625 0.597656 C 31.371094 0.597656 37.765625 -6.164062 37.71875 -16.652344 C 37.71875 -27.136719 31.371094 -33.945312 19.640625 -33.945312 C 7.910156 -33.945312 1.609375 -27.136719 1.609375 -16.652344 Z M 17.9375 -31.09375 C 22.816406 -31.691406 25.113281 -25.941406 26.171875 -17.433594 C 27.183594 -8.96875 26.355469 -2.851562 21.433594 -2.253906 C 16.558594 -1.65625 14.167969 -7.359375 13.15625 -15.867188 C 12.097656 -24.378906 13.0625 -30.496094 17.9375 -31.09375 Z M 17.9375 -31.09375 "/></g></g></g><g fill="#ffde59" fill-opacity="1"><g transform="translate(211.271049, 47.312112)"><g><path d="M 2.484375 -31.417969 C 2.714844 -31.230469 3.035156 -31.046875 3.402344 -30.863281 C 4.140625 -30.449219 4.644531 -29.667969 4.644531 -28.839844 L 4.644531 -11.820312 C 4.644531 -3.726562 10.535156 0.644531 21.574219 0.644531 C 31.230469 0.644531 35.695312 -3.816406 35.695312 -12.375 L 35.695312 -28.792969 C 35.695312 -29.578125 36.152344 -30.359375 36.890625 -30.816406 C 37.121094 -30.957031 37.394531 -31.140625 37.671875 -31.324219 C 38.453125 -31.875 38.039062 -33.300781 37.074219 -33.300781 L 31.140625 -33.300781 C 30.175781 -33.300781 29.761719 -31.875 30.542969 -31.324219 C 30.773438 -31.140625 31.140625 -30.957031 31.460938 -30.773438 C 32.105469 -30.449219 32.566406 -29.804688 32.703125 -29.117188 L 32.703125 -13.0625 C 32.703125 -5.933594 29.898438 -2.253906 23.917969 -2.253906 C 18.351562 -2.253906 15.960938 -5.613281 15.960938 -13.0625 L 15.960938 -29.117188 C 16.054688 -29.804688 16.511719 -30.496094 17.15625 -30.863281 C 17.386719 -31.046875 17.664062 -31.230469 17.9375 -31.417969 C 18.722656 -31.921875 18.261719 -33.394531 17.339844 -33.394531 L 3.035156 -33.394531 C 2.117188 -33.394531 1.703125 -31.921875 2.484375 -31.417969 Z M 2.484375 -31.417969 "/></g></g></g><g fill="#ffde59" fill-opacity="1"><g transform="translate(250.735734, 47.312112)"><g><path d="M 3.726562 0 L 17.984375 0 C 18.949219 0 19.363281 -1.425781 18.582031 -1.976562 C 18.308594 -2.160156 18.03125 -2.347656 17.800781 -2.484375 C 17.066406 -2.945312 16.605469 -3.726562 16.605469 -4.507812 L 16.605469 -28.839844 C 16.605469 -29.621094 17.066406 -30.40625 17.800781 -30.863281 C 18.03125 -31.003906 18.308594 -31.1875 18.582031 -31.371094 C 19.363281 -31.921875 18.949219 -33.347656 17.984375 -33.347656 L 3.726562 -33.347656 C 2.804688 -33.347656 2.390625 -31.921875 3.171875 -31.371094 C 3.402344 -31.1875 3.726562 -31.003906 4.09375 -30.816406 C 4.828125 -30.449219 5.335938 -29.667969 5.335938 -28.839844 L 5.335938 -4.507812 C 5.335938 -3.679688 4.828125 -2.898438 4.09375 -2.53125 C 3.726562 -2.347656 3.402344 -2.160156 3.171875 -1.976562 C 2.390625 -1.425781 2.804688 0 3.726562 0 Z M 3.726562 0 "/></g></g></g><g fill="#ffde59" fill-opacity="1"><g transform="translate(272.721893, 47.312112)"><g><path d="M 1.886719 0 L 8.09375 0 C 9.0625 0 9.476562 -1.425781 8.695312 -1.976562 C 8.417969 -2.160156 8.140625 -2.347656 7.910156 -2.484375 C 7.175781 -2.945312 6.714844 -3.726562 6.714844 -4.507812 L 6.714844 -26.171875 L 24.101562 -1.148438 C 24.5625 -0.460938 25.4375 0 26.265625 0 L 36.199219 0 C 37.578125 0 37.578125 -1.425781 36.796875 -1.976562 C 36.523438 -2.160156 36.292969 -2.347656 36.015625 -2.484375 C 35.28125 -2.945312 34.820312 -3.726562 34.820312 -4.507812 L 34.820312 -28.839844 C 34.820312 -29.621094 35.28125 -30.40625 36.015625 -30.863281 C 36.292969 -31.003906 36.523438 -31.1875 36.796875 -31.371094 C 37.578125 -31.921875 37.164062 -33.347656 36.199219 -33.347656 L 29.992188 -33.347656 C 29.070312 -33.347656 28.65625 -31.921875 29.4375 -31.371094 C 29.667969 -31.1875 29.992188 -31.003906 30.359375 -30.816406 C 31.09375 -30.449219 31.601562 -29.667969 31.601562 -28.839844 L 31.601562 -9.980469 L 16.007812 -32.246094 C 15.546875 -32.886719 14.671875 -33.347656 13.84375 -33.347656 L 1.746094 -33.347656 C 0.921875 -33.164062 0.597656 -31.875 1.332031 -31.371094 C 1.5625 -31.1875 1.886719 -31.003906 2.253906 -30.816406 C 2.988281 -30.449219 3.496094 -29.667969 3.496094 -28.839844 L 3.496094 -4.507812 C 3.496094 -3.679688 2.988281 -2.898438 2.253906 -2.53125 C 1.886719 -2.347656 1.5625 -2.160156 1.332031 -1.976562 C 0.550781 -1.425781 0.964844 0 1.886719 0 Z M 1.886719 0 "/></g></g></g><g fill="#ffde59" fill-opacity="1"><g transform="translate(311.220663, 47.312112)"><g><path d="M 1.609375 -16.652344 C 1.609375 -6.164062 7.910156 0.597656 19.640625 0.597656 C 31.371094 0.597656 37.765625 -6.164062 37.71875 -16.652344 C 37.71875 -27.136719 31.371094 -33.945312 19.640625 -33.945312 C 7.910156 -33.945312 1.609375 -27.136719 1.609375 -16.652344 Z M 17.9375 -31.09375 C 22.816406 -31.691406 25.113281 -25.941406 26.171875 -17.433594 C 27.183594 -8.96875 26.355469 -2.851562 21.433594 -2.253906 C 16.558594 -1.65625 14.167969 -7.359375 13.15625 -15.867188 C 12.097656 -24.378906 13.0625 -30.496094 17.9375 -31.09375 Z M 17.9375 -31.09375 "/></g></g></g><g fill="#ffffff" fill-opacity="1"><g transform="translate(69.122365, 126.768729)"><g><path d="M 29.316406 0 L 29.316406 -39.191406 L 22.027344 -39.191406 L 15.597656 -18.734375 L 9.09375 -39.191406 L 1.882812 -39.191406 L 1.882812 0 L 10.035156 0 L 10.035156 -16.851562 L 13.796875 -6.269531 L 17.402344 -6.269531 L 21.164062 -16.851562 L 21.164062 0 Z M 29.316406 0 "/></g></g></g><g fill="#ffffff" fill-opacity="1"><g transform="translate(100.757226, 126.768729)"><g><path d="M 10.035156 -30.023438 L 20.535156 -30.023438 L 20.535156 -39.191406 L 1.882812 -39.191406 L 1.882812 0 L 20.535156 0 L 20.535156 -9.25 L 10.035156 -9.25 L 10.035156 -15.128906 L 20.535156 -15.128906 L 20.535156 -24.144531 L 10.035156 -24.144531 Z M 10.035156 -30.023438 "/></g></g></g><g fill="#ffffff" fill-opacity="1"><g transform="translate(123.534967, 126.768729)"><g><path d="M 10.660156 -39.191406 L 1.882812 -39.191406 L 1.882812 0 L 10.660156 0 C 18.96875 0 23.59375 -7.054688 23.59375 -19.597656 C 23.59375 -32.136719 18.96875 -39.191406 10.660156 -39.191406 Z M 11.914062 -9.796875 L 10.035156 -9.796875 L 10.035156 -29.394531 L 11.914062 -29.394531 C 14.34375 -29.394531 15.753906 -25.867188 15.753906 -19.597656 C 15.753906 -13.324219 14.34375 -9.796875 11.914062 -9.796875 Z M 11.914062 -9.796875 "/></g></g></g><g fill="#ffffff" fill-opacity="1"><g transform="translate(149.056063, 126.768729)"><g><path d="M 10.035156 -39.191406 L 1.882812 -39.191406 L 1.882812 0 L 10.035156 0 Z M 10.035156 -39.191406 "/></g></g></g><g fill="#ffffff" fill-opacity="1"><g transform="translate(161.330658, 126.768729)"><g><path d="M 15.992188 -15.992188 L 23.671875 -14.1875 C 22.417969 -4.78125 18.5 0.46875 12.777344 0.46875 C 5.566406 0.46875 1.566406 -6.742188 1.566406 -19.597656 C 1.566406 -32.453125 5.566406 -39.664062 12.777344 -39.664062 C 18.578125 -39.664062 22.496094 -34.410156 23.671875 -25.003906 L 15.992188 -23.28125 C 15.519531 -27.511719 14.34375 -29.863281 12.777344 -29.863281 C 10.660156 -29.863281 9.40625 -26.179688 9.40625 -19.597656 C 9.40625 -13.011719 10.660156 -9.328125 12.777344 -9.328125 C 14.5 -9.328125 15.675781 -11.679688 15.992188 -15.992188 Z M 15.992188 -15.992188 "/></g></g></g><g fill="#ffffff" fill-opacity="1"><g transform="translate(187.00852, 126.768729)"><g><path d="M 17.558594 -5.566406 L 18.734375 0 L 26.652344 0 L 17.714844 -39.191406 L 9.40625 -39.191406 L 0.46875 0 L 8.386719 0 L 9.5625 -5.566406 Z M 15.519531 -14.578125 L 11.601562 -14.578125 L 13.5625 -26.257812 Z M 15.519531 -14.578125 "/></g></g></g><g fill="#ffffff" fill-opacity="1"><g transform="translate(214.56754, 126.768729)"><g><path d="M 20.535156 -9.796875 L 10.035156 -9.796875 L 10.035156 -39.191406 L 1.882812 -39.191406 L 1.882812 0 L 20.535156 0 Z M 20.535156 -9.796875 "/></g></g></g><g fill="#ffffff" fill-opacity="1"><g transform="translate(237.110133, 126.768729)"><g/></g></g><g fill="#ffffff" fill-opacity="1"><g transform="translate(245.622408, 126.768729)"><g><path d="M 15.992188 -15.992188 L 23.671875 -14.1875 C 22.417969 -4.78125 18.5 0.46875 12.777344 0.46875 C 5.566406 0.46875 1.566406 -6.742188 1.566406 -19.597656 C 1.566406 -32.453125 5.566406 -39.664062 12.777344 -39.664062 C 18.578125 -39.664062 22.496094 -34.410156 23.671875 -25.003906 L 15.992188 -23.28125 C 15.519531 -27.511719 14.34375 -29.863281 12.777344 -29.863281 C 10.660156 -29.863281 9.40625 -26.179688 9.40625 -19.597656 C 9.40625 -13.011719 10.660156 -9.328125 12.777344 -9.328125 C 14.5 -9.328125 15.675781 -11.679688 15.992188 -15.992188 Z M 15.992188 -15.992188 "/></g></g></g><g fill="#ffffff" fill-opacity="1"><g transform="translate(271.300271, 126.768729)"><g><path d="M 20.535156 -9.796875 L 10.035156 -9.796875 L 10.035156 -39.191406 L 1.882812 -39.191406 L 1.882812 0 L 20.535156 0 Z M 20.535156 -9.796875 "/></g></g></g><g fill="#ffffff" fill-opacity="1"><g transform="translate(293.842864, 126.768729)"><g><path d="M 10.035156 -39.191406 L 1.882812 -39.191406 L 1.882812 0 L 10.035156 0 Z M 10.035156 -39.191406 "/></g></g></g><g fill="#ffffff" fill-opacity="1"><g transform="translate(306.117453, 126.768729)"><g><path d="M 1.882812 0 L 10.035156 0 L 10.035156 -18.421875 L 16.929688 0 L 23.59375 0 L 23.59375 -39.191406 L 15.519531 -39.191406 L 15.519531 -20.851562 L 8.542969 -39.191406 L 1.882812 -39.191406 Z M 1.882812 0 "/></g></g></g><g fill="#ffffff" fill-opacity="1"><g transform="translate(332.030446, 126.768729)"><g><path d="M 10.035156 -39.191406 L 1.882812 -39.191406 L 1.882812 0 L 10.035156 0 Z M 10.035156 -39.191406 "/></g></g></g><g fill="#ffffff" fill-opacity="1"><g transform="translate(344.305034, 126.768729)"><g><path d="M 15.992188 -15.992188 L 23.671875 -14.1875 C 22.417969 -4.78125 18.5 0.46875 12.777344 0.46875 C 5.566406 0.46875 1.566406 -6.742188 1.566406 -19.597656 C 1.566406 -32.453125 5.566406 -39.664062 12.777344 -39.664062 C 18.578125 -39.664062 22.496094 -34.410156 23.671875 -25.003906 L 15.992188 -23.28125 C 15.519531 -27.511719 14.34375 -29.863281 12.777344 -29.863281 C 10.660156 -29.863281 9.40625 -26.179688 9.40625 -19.597656 C 9.40625 -13.011719 10.660156 -9.328125 12.777344 -9.328125 C 14.5 -9.328125 15.675781 -11.679688 15.992188 -15.992188 Z M 15.992188 -15.992188 "/></g></g></g></svg>